<?xml version="1.0" encoding="utf-8" standalone="no"?>
<!DOCTYPE svg PUBLIC "-//W3C//DTD SVG 1.1//EN"
  "http://www.w3.org/Graphics/SVG/1.1/DTD/svg11.dtd">
<svg xmlns:xlink="http://www.w3.org/1999/xlink" width="907.2pt" height="236.16pt" viewBox="0 0 907.2 236.16" xmlns="http://www.w3.org/2000/svg" version="1.1">
 <metadata>
  <rdf:RDF xmlns:dc="http://purl.org/dc/elements/1.1/" xmlns:cc="http://creativecommons.org/ns#" xmlns:rdf="http://www.w3.org/1999/02/22-rdf-syntax-ns#">
   <cc:Work>
    <dc:type rdf:resource="http://purl.org/dc/dcmitype/StillImage"/>
    <dc:date>2025-11-04T14:10:49.191249</dc:date>
    <dc:format>image/svg+xml</dc:format>
    <dc:creator>
     <cc:Agent>
      <dc:title>Matplotlib v3.8.4, https://matplotlib.org/</dc:title>
     </cc:Agent>
    </dc:creator>
   </cc:Work>
  </rdf:RDF>
 </metadata>
 <defs>
  <style type="text/css">*{stroke-linejoin: round; stroke-linecap: butt}</style>
 </defs>
 <g id="figure_1">
  <g id="patch_1">
   <path d="M 0 236.16 
L 907.2 236.16 
L 907.2 0 
L 0 0 
z
" style="fill: #0a0a2a"/>
  </g>
  <g id="axes_1">
   <g id="patch_2">
    <path d="M 90.9 201.24 
L 174.6 118.08 
L 90.9 34.92 
L 7.2 118.08 
z
" clip-path="url(#p3970afc405)" style="fill: #007bff; stroke: #00ccff; stroke-width: 2; stroke-linejoin: miter"/>
   </g>
   <g id="patch_3">
    <path d="M 90.9 184.608 
L 157.86 118.08 
L 90.9 51.552 
L 23.94 118.08 
z
" clip-path="url(#p3970afc405)" style="fill: #00ccff; opacity: 0.4"/>
   </g>
   <g id="text_1">
    <!-- VISUALIZATION OF SMART FACTORY -->
    <g style="fill: #ffffff" transform="translate(230.4 97.355625) scale(0.24 -0.24)">
     <defs>
      <path id="NotoSansCJKjp-Bold-56" d="M 1414 0 
L 2547 0 
L 3994 4742 
L 3034 4742 
L 2419 2432 
C 2272 1907 2170 1434 2016 902 
L 1984 902 
C 1837 1434 1734 1907 1587 2432 
L 966 4742 
L -32 4742 
L 1414 0 
z
" transform="scale(0.015625)"/>
      <path id="NotoSansCJKjp-Bold-49" d="M 582 0 
L 1530 0 
L 1530 4742 
L 582 4742 
L 582 0 
z
" transform="scale(0.015625)"/>
      <path id="NotoSansCJKjp-Bold-53" d="M 1997 -90 
C 3091 -90 3738 570 3738 1344 
C 3738 2029 3360 2400 2784 2637 
L 2163 2886 
C 1760 3053 1427 3174 1427 3514 
C 1427 3827 1683 4013 2099 4013 
C 2496 4013 2810 3866 3110 3622 
L 3590 4211 
C 3206 4602 2656 4826 2099 4826 
C 1146 4826 461 4224 461 3456 
C 461 2765 947 2381 1427 2189 
L 2054 1914 
C 2477 1734 2771 1626 2771 1274 
C 2771 941 2509 730 2016 730 
C 1600 730 1146 941 813 1254 
L 269 602 
C 730 154 1363 -90 1997 -90 
z
" transform="scale(0.015625)"/>
      <path id="NotoSansCJKjp-Bold-55" d="M 2406 -90 
C 3558 -90 4230 563 4230 2131 
L 4230 4742 
L 3322 4742 
L 3322 2048 
C 3322 1062 2957 730 2406 730 
C 1850 730 1504 1062 1504 2048 
L 1504 4742 
L 563 4742 
L 563 2131 
C 563 563 1242 -90 2406 -90 
z
" transform="scale(0.015625)"/>
      <path id="NotoSansCJKjp-Bold-41" d="M -26 0 
L 934 0 
L 1267 1216 
L 2797 1216 
L 3130 0 
L 4128 0 
L 2611 4742 
L 1491 4742 
L -26 0 
z
M 1472 1952 
L 1613 2470 
C 1754 2963 1888 3501 2016 4019 
L 2042 4019 
C 2182 3514 2310 2963 2458 2470 
L 2598 1952 
L 1472 1952 
z
" transform="scale(0.015625)"/>
      <path id="NotoSansCJKjp-Bold-4c" d="M 582 0 
L 3456 0 
L 3456 794 
L 1530 794 
L 1530 4742 
L 582 4742 
L 582 0 
z
" transform="scale(0.015625)"/>
      <path id="NotoSansCJKjp-Bold-5a" d="M 275 0 
L 3667 0 
L 3667 794 
L 1440 794 
L 3648 4173 
L 3648 4742 
L 486 4742 
L 486 3949 
L 2483 3949 
L 275 570 
L 275 0 
z
" transform="scale(0.015625)"/>
      <path id="NotoSansCJKjp-Bold-54" d="M 1523 0 
L 2470 0 
L 2470 3949 
L 3808 3949 
L 3808 4742 
L 192 4742 
L 192 3949 
L 1523 3949 
L 1523 0 
z
" transform="scale(0.015625)"/>
      <path id="NotoSansCJKjp-Bold-4f" d="M 2464 -90 
C 3718 -90 4582 851 4582 2394 
C 4582 3930 3718 4826 2464 4826 
C 1210 4826 346 3930 346 2394 
C 346 851 1210 -90 2464 -90 
z
M 2464 730 
C 1760 730 1318 1382 1318 2394 
C 1318 3405 1760 4013 2464 4013 
C 3168 4013 3616 3405 3616 2394 
C 3616 1382 3168 730 2464 730 
z
" transform="scale(0.015625)"/>
      <path id="NotoSansCJKjp-Bold-4e" d="M 582 0 
L 1485 0 
L 1485 1901 
C 1485 2445 1402 3040 1363 3552 
L 1395 3552 
L 1875 2534 
L 3238 0 
L 4205 0 
L 4205 4742 
L 3309 4742 
L 3309 2848 
C 3309 2310 3386 1683 3437 1190 
L 3405 1190 
L 2925 2214 
L 1549 4742 
L 582 4742 
L 582 0 
z
" transform="scale(0.015625)"/>
      <path id="NotoSansCJKjp-Bold-20" transform="scale(0.015625)"/>
      <path id="NotoSansCJKjp-Bold-46" d="M 582 0 
L 1530 0 
L 1530 1920 
L 3213 1920 
L 3213 2714 
L 1530 2714 
L 1530 3949 
L 3501 3949 
L 3501 4742 
L 582 4742 
L 582 0 
z
" transform="scale(0.015625)"/>
      <path id="NotoSansCJKjp-Bold-4d" d="M 582 0 
L 1434 0 
L 1434 1978 
C 1434 2432 1357 3085 1312 3533 
L 1338 3533 
L 1715 2419 
L 2451 429 
L 2995 429 
L 3725 2419 
L 4109 3533 
L 4141 3533 
C 4090 3085 4019 2432 4019 1978 
L 4019 0 
L 4883 0 
L 4883 4742 
L 3834 4742 
L 3040 2515 
C 2944 2227 2861 1914 2758 1613 
L 2726 1613 
C 2630 1914 2541 2227 2438 2515 
L 1632 4742 
L 582 4742 
L 582 0 
z
" transform="scale(0.015625)"/>
      <path id="NotoSansCJKjp-Bold-52" d="M 1530 2541 
L 1530 3987 
L 2144 3987 
C 2752 3987 3085 3814 3085 3302 
C 3085 2797 2752 2541 2144 2541 
L 1530 2541 
z
M 3162 0 
L 4218 0 
L 3110 1939 
C 3654 2150 4013 2592 4013 3302 
C 4013 4390 3226 4742 2227 4742 
L 582 4742 
L 582 0 
L 1530 0 
L 1530 1792 
L 2189 1792 
L 3162 0 
z
" transform="scale(0.015625)"/>
      <path id="NotoSansCJKjp-Bold-43" d="M 2509 -90 
C 3130 -90 3635 154 4026 608 
L 3520 1197 
C 3270 922 2957 730 2547 730 
C 1798 730 1318 1350 1318 2381 
C 1318 3398 1850 4013 2566 4013 
C 2925 4013 3200 3846 3443 3616 
L 3936 4218 
C 3629 4538 3155 4826 2547 4826 
C 1350 4826 346 3910 346 2349 
C 346 768 1318 -90 2509 -90 
z
" transform="scale(0.015625)"/>
      <path id="NotoSansCJKjp-Bold-59" d="M 1389 0 
L 2330 0 
L 2330 1734 
L 3757 4742 
L 2771 4742 
L 2298 3584 
C 2157 3232 2022 2899 1875 2534 
L 1850 2534 
C 1702 2899 1574 3232 1440 3584 
L 966 4742 
L -38 4742 
L 1389 1734 
L 1389 0 
z
" transform="scale(0.015625)"/>
     </defs>
     <use xlink:href="#NotoSansCJKjp-Bold-56"/>
     <use xlink:href="#NotoSansCJKjp-Bold-49" x="61.899994"/>
     <use xlink:href="#NotoSansCJKjp-Bold-53" x="94.899979"/>
     <use xlink:href="#NotoSansCJKjp-Bold-55" x="157.299973"/>
     <use xlink:href="#NotoSansCJKjp-Bold-41" x="232.09996"/>
     <use xlink:href="#NotoSansCJKjp-Bold-4c" x="296.199951"/>
     <use xlink:href="#NotoSansCJKjp-Bold-49" x="353.999939"/>
     <use xlink:href="#NotoSansCJKjp-Bold-5a" x="386.999924"/>
     <use xlink:href="#NotoSansCJKjp-Bold-41" x="448.299911"/>
     <use xlink:href="#NotoSansCJKjp-Bold-54" x="512.399902"/>
     <use xlink:href="#NotoSansCJKjp-Bold-49" x="574.899887"/>
     <use xlink:href="#NotoSansCJKjp-Bold-4f" x="607.899872"/>
     <use xlink:href="#NotoSansCJKjp-Bold-4e" x="684.899857"/>
     <use xlink:href="#NotoSansCJKjp-Bold-20" x="759.79985"/>
     <use xlink:href="#NotoSansCJKjp-Bold-4f" x="782.499847"/>
     <use xlink:href="#NotoSansCJKjp-Bold-46" x="859.499832"/>
     <use xlink:href="#NotoSansCJKjp-Bold-20" x="917.999817"/>
     <use xlink:href="#NotoSansCJKjp-Bold-53" x="940.699814"/>
     <use xlink:href="#NotoSansCJKjp-Bold-4d" x="1003.099808"/>
     <use xlink:href="#NotoSansCJKjp-Bold-41" x="1088.399796"/>
     <use xlink:href="#NotoSansCJKjp-Bold-52" x="1152.499786"/>
     <use xlink:href="#NotoSansCJKjp-Bold-54" x="1220.699768"/>
     <use xlink:href="#NotoSansCJKjp-Bold-20" x="1283.199753"/>
     <use xlink:href="#NotoSansCJKjp-Bold-46" x="1305.89975"/>
     <use xlink:href="#NotoSansCJKjp-Bold-41" x="1364.399734"/>
     <use xlink:href="#NotoSansCJKjp-Bold-43" x="1428.499725"/>
     <use xlink:href="#NotoSansCJKjp-Bold-54" x="1494.099716"/>
     <use xlink:href="#NotoSansCJKjp-Bold-4f" x="1556.599701"/>
     <use xlink:href="#NotoSansCJKjp-Bold-52" x="1633.599686"/>
     <use xlink:href="#NotoSansCJKjp-Bold-59" x="1701.799667"/>
    </g>
   </g>
   <g id="text_2">
    <!-- Visualization of smart factory -->
    <g style="fill: #00ffaa" transform="translate(230.4 149.825) scale(0.14 -0.14)">
     <defs>
      <path id="NotoSansCJKjp-Regular-56" d="M 1504 0 
L 2189 0 
L 3680 4691 
L 3078 4691 
L 2323 2150 
C 2163 1600 2048 1152 1869 602 
L 1843 602 
C 1670 1152 1549 1600 1389 2150 
L 627 4691 
L 6 4691 
L 1504 0 
z
" transform="scale(0.015625)"/>
      <path id="NotoSansCJKjp-Regular-69" d="M 589 0 
L 1178 0 
L 1178 3475 
L 589 3475 
L 589 0 
z
M 883 4192 
C 1114 4192 1274 4346 1274 4582 
C 1274 4806 1114 4960 883 4960 
C 653 4960 499 4806 499 4582 
C 499 4346 653 4192 883 4192 
z
" transform="scale(0.015625)"/>
      <path id="NotoSansCJKjp-Regular-73" d="M 1498 -83 
C 2317 -83 2758 384 2758 947 
C 2758 1606 2208 1811 1702 2003 
C 1312 2150 954 2278 954 2605 
C 954 2880 1158 3110 1600 3110 
C 1907 3110 2150 2976 2387 2803 
L 2669 3168 
C 2406 3386 2022 3565 1594 3565 
C 832 3565 397 3130 397 2579 
C 397 1984 922 1754 1408 1574 
C 1792 1434 2202 1267 2202 915 
C 2202 614 1978 371 1517 371 
C 1101 371 794 538 486 787 
L 205 397 
C 531 122 1005 -83 1498 -83 
z
" transform="scale(0.015625)"/>
      <path id="NotoSansCJKjp-Regular-75" d="M 1606 -83 
C 2080 -83 2426 166 2752 544 
L 2771 544 
L 2816 0 
L 3302 0 
L 3302 3475 
L 2720 3475 
L 2720 1011 
C 2387 602 2138 422 1779 422 
C 1318 422 1126 698 1126 1344 
L 1126 3475 
L 538 3475 
L 538 1274 
C 538 384 870 -83 1606 -83 
z
" transform="scale(0.015625)"/>
      <path id="NotoSansCJKjp-Regular-61" d="M 1389 -83 
C 1818 -83 2208 141 2541 416 
L 2560 416 
L 2611 0 
L 3091 0 
L 3091 2138 
C 3091 3002 2739 3565 1888 3565 
C 1325 3565 838 3315 525 3110 
L 749 2707 
C 1024 2893 1389 3078 1792 3078 
C 2362 3078 2509 2650 2509 2202 
C 1030 2035 378 1658 378 902 
C 378 275 806 -83 1389 -83 
z
M 1555 390 
C 1210 390 941 544 941 941 
C 941 1389 1338 1677 2509 1811 
L 2509 845 
C 2170 544 1888 390 1555 390 
z
" transform="scale(0.015625)"/>
      <path id="NotoSansCJKjp-Regular-6c" d="M 1203 -83 
C 1363 -83 1459 -58 1542 -32 
L 1459 416 
C 1395 403 1370 403 1338 403 
C 1248 403 1178 474 1178 653 
L 1178 5094 
L 589 5094 
L 589 691 
C 589 198 768 -83 1203 -83 
z
" transform="scale(0.015625)"/>
      <path id="NotoSansCJKjp-Regular-7a" d="M 224 0 
L 2854 0 
L 2854 474 
L 960 474 
L 2797 3162 
L 2797 3475 
L 422 3475 
L 422 3002 
L 2054 3002 
L 224 314 
L 224 0 
z
" transform="scale(0.015625)"/>
      <path id="NotoSansCJKjp-Regular-74" d="M 1677 -83 
C 1894 -83 2125 -19 2323 45 
L 2208 486 
C 2093 435 1939 390 1811 390 
C 1408 390 1274 634 1274 1056 
L 1274 3002 
L 2221 3002 
L 2221 3475 
L 1274 3475 
L 1274 4454 
L 787 4454 
L 723 3475 
L 173 3443 
L 173 3002 
L 691 3002 
L 691 1075 
C 691 378 941 -83 1677 -83 
z
" transform="scale(0.015625)"/>
      <path id="NotoSansCJKjp-Regular-6f" d="M 1939 -83 
C 2790 -83 3546 582 3546 1734 
C 3546 2893 2790 3565 1939 3565 
C 1088 3565 333 2893 333 1734 
C 333 582 1088 -83 1939 -83 
z
M 1939 403 
C 1338 403 934 934 934 1734 
C 934 2534 1338 3072 1939 3072 
C 2541 3072 2950 2534 2950 1734 
C 2950 934 2541 403 1939 403 
z
" transform="scale(0.015625)"/>
      <path id="NotoSansCJKjp-Regular-6e" d="M 589 0 
L 1178 0 
L 1178 2522 
C 1523 2874 1766 3053 2125 3053 
C 2586 3053 2784 2778 2784 2125 
L 2784 0 
L 3366 0 
L 3366 2202 
C 3366 3085 3034 3565 2304 3565 
C 1830 3565 1466 3302 1139 2970 
L 1126 2970 
L 1069 3475 
L 589 3475 
L 589 0 
z
" transform="scale(0.015625)"/>
      <path id="NotoSansCJKjp-Regular-20" transform="scale(0.015625)"/>
      <path id="NotoSansCJKjp-Regular-66" d="M 211 3002 
L 685 3002 
L 685 0 
L 1267 0 
L 1267 3002 
L 2003 3002 
L 2003 3475 
L 1267 3475 
L 1267 4026 
C 1267 4474 1427 4710 1760 4710 
C 1882 4710 2022 4678 2150 4614 
L 2278 5069 
C 2118 5133 1914 5178 1696 5178 
C 1005 5178 685 4736 685 4032 
L 685 3475 
L 211 3443 
L 211 3002 
z
" transform="scale(0.015625)"/>
      <path id="NotoSansCJKjp-Regular-6d" d="M 589 0 
L 1178 0 
L 1178 2522 
C 1491 2880 1786 3053 2048 3053 
C 2490 3053 2694 2778 2694 2125 
L 2694 0 
L 3277 0 
L 3277 2522 
C 3603 2880 3885 3053 4154 3053 
C 4595 3053 4800 2778 4800 2125 
L 4800 0 
L 5382 0 
L 5382 2202 
C 5382 3085 5043 3565 4333 3565 
C 3904 3565 3546 3290 3181 2899 
C 3040 3309 2758 3565 2221 3565 
C 1805 3565 1446 3302 1139 2970 
L 1126 2970 
L 1069 3475 
L 589 3475 
L 589 0 
z
" transform="scale(0.015625)"/>
      <path id="NotoSansCJKjp-Regular-72" d="M 589 0 
L 1178 0 
L 1178 2234 
C 1408 2822 1760 3040 2048 3040 
C 2195 3040 2272 3021 2387 2982 
L 2496 3488 
C 2387 3546 2278 3565 2125 3565 
C 1741 3565 1382 3283 1139 2842 
L 1126 2842 
L 1069 3475 
L 589 3475 
L 589 0 
z
" transform="scale(0.015625)"/>
      <path id="NotoSansCJKjp-Regular-63" d="M 1958 -83 
C 2374 -83 2771 83 3085 352 
L 2829 749 
C 2611 557 2330 403 2010 403 
C 1370 403 934 934 934 1734 
C 934 2534 1395 3072 2029 3072 
C 2298 3072 2522 2950 2720 2771 
L 3014 3155 
C 2771 3373 2458 3565 2003 3565 
C 1107 3565 333 2893 333 1734 
C 333 582 1037 -83 1958 -83 
z
" transform="scale(0.015625)"/>
      <path id="NotoSansCJKjp-Regular-79" d="M 646 -1498 
C 1338 -1498 1702 -973 1946 -294 
L 3251 3475 
L 2682 3475 
L 2054 1549 
C 1965 1235 1862 883 1773 563 
L 1741 563 
C 1619 890 1504 1242 1395 1549 
L 691 3475 
L 83 3475 
L 1478 -6 
L 1402 -269 
C 1254 -698 1011 -1018 621 -1018 
C 525 -1018 422 -986 352 -960 
L 237 -1427 
C 346 -1472 486 -1498 646 -1498 
z
" transform="scale(0.015625)"/>
     </defs>
     <use xlink:href="#NotoSansCJKjp-Regular-56"/>
     <use xlink:href="#NotoSansCJKjp-Regular-69" x="57.499985"/>
     <use xlink:href="#NotoSansCJKjp-Regular-73" x="84.999969"/>
     <use xlink:href="#NotoSansCJKjp-Regular-75" x="131.799957"/>
     <use xlink:href="#NotoSansCJKjp-Regular-61" x="192.499954"/>
     <use xlink:href="#NotoSansCJKjp-Regular-6c" x="248.799942"/>
     <use xlink:href="#NotoSansCJKjp-Regular-69" x="277.199936"/>
     <use xlink:href="#NotoSansCJKjp-Regular-7a" x="304.699921"/>
     <use xlink:href="#NotoSansCJKjp-Regular-61" x="352.199905"/>
     <use xlink:href="#NotoSansCJKjp-Regular-74" x="408.499893"/>
     <use xlink:href="#NotoSansCJKjp-Regular-69" x="446.19989"/>
     <use xlink:href="#NotoSansCJKjp-Regular-6f" x="473.699875"/>
     <use xlink:href="#NotoSansCJKjp-Regular-6e" x="534.299866"/>
     <use xlink:href="#NotoSansCJKjp-Regular-20" x="595.29985"/>
     <use xlink:href="#NotoSansCJKjp-Regular-6f" x="617.699844"/>
     <use xlink:href="#NotoSansCJKjp-Regular-66" x="678.299835"/>
     <use xlink:href="#NotoSansCJKjp-Regular-20" x="710.79982"/>
     <use xlink:href="#NotoSansCJKjp-Regular-73" x="733.199814"/>
     <use xlink:href="#NotoSansCJKjp-Regular-6d" x="779.999802"/>
     <use xlink:href="#NotoSansCJKjp-Regular-61" x="872.599792"/>
     <use xlink:href="#NotoSansCJKjp-Regular-72" x="928.89978"/>
     <use xlink:href="#NotoSansCJKjp-Regular-74" x="967.699768"/>
     <use xlink:href="#NotoSansCJKjp-Regular-20" x="1005.399765"/>
     <use xlink:href="#NotoSansCJKjp-Regular-66" x="1027.799759"/>
     <use xlink:href="#NotoSansCJKjp-Regular-61" x="1060.299744"/>
     <use xlink:href="#NotoSansCJKjp-Regular-63" x="1116.599731"/>
     <use xlink:href="#NotoSansCJKjp-Regular-74" x="1167.599716"/>
     <use xlink:href="#NotoSansCJKjp-Regular-6f" x="1205.299713"/>
     <use xlink:href="#NotoSansCJKjp-Regular-72" x="1265.899704"/>
     <use xlink:href="#NotoSansCJKjp-Regular-79" x="1304.699692"/>
    </g>
   </g>
  </g>
 </g>
 <defs>
  <clipPath id="p3970afc405">
   <rect x="7.2" y="7.2" width="892.8" height="221.76"/>
  </clipPath>
 </defs>
</svg>
