<svg 
 xmlns="http://www.w3.org/2000/svg"
 xmlns:xlink="http://www.w3.org/1999/xlink"
 width="217px" height="66px">
<defs>
<linearGradient id="PSgrad_0" x1="0%" x2="0%" y1="100%" y2="0%">
  <stop offset="0%" stop-color="rgb(15,95,130)" stop-opacity="1" />
  <stop offset="100%" stop-color="rgb(14,67,124)" stop-opacity="0" />
</linearGradient>
<linearGradient id="PSgrad_1" x1="0%" x2="0%" y1="100%" y2="0%">
  <stop offset="0%" stop-color="rgb(0,125,100)" stop-opacity="1" />
  <stop offset="100%" stop-color="rgb(1,70,65)" stop-opacity="0" />
</linearGradient>

</defs>
<path fill-rule="evenodd"  stroke-width="2px" stroke-linecap="butt" stroke-linejoin="miter" opacity="0.2" fill="url(#PSgrad_0)"
 d="M45.1000,16.1000 L5.1000,50.1000 C5.1000,50.1000 -2.737,58.586 5.1000,62.1000 C25.487,62.1000 124.1000,62.1000 124.1000,62.1000 C124.1000,62.1000 162.687,62.048 174.1000,51.1000 C187.313,41.952 209.1000,23.1000 209.1000,23.1000 C209.1000,23.1000 219.049,11.1000 206.1000,11.1000 C194.951,11.1000 58.1000,11.1000 58.1000,11.1000 C58.1000,11.1000 52.790,9.927 45.1000,16.1000 Z"/>
<path fill-rule="evenodd"  stroke-width="2px" stroke-linecap="butt" stroke-linejoin="miter" fill="url(#PSgrad_1)"
 d="M45.1000,7.1000 L5.1000,41.1000 C5.1000,41.1000 -2.737,49.586 5.1000,53.1000 C25.487,53.1000 124.1000,53.1000 124.1000,53.1000 C124.1000,53.1000 162.687,53.048 174.1000,42.1000 C187.313,32.952 209.1000,14.1000 209.1000,14.1000 C209.1000,14.1000 219.049,2.1000 206.1000,2.1000 C194.951,2.1000 58.1000,2.1000 58.1000,2.1000 C58.1000,2.1000 52.790,0.927 45.1000,7.1000 Z"/>
<path fill-rule="evenodd"  stroke-width="2px" stroke-linecap="butt" stroke-linejoin="miter" fill="none"
 d="M5.1000,54.1000 C25.487,54.1000 124.1000,54.1000 124.1000,54.1000 C124.1000,54.1000 162.687,54.048 174.1000,43.1000 C187.313,33.952 209.1000,15.1000 209.1000,15.1000 "/>
</svg>